# Blender v2.79 (sub 0) OBJ File: 'small_house.blend'
# www.blender.org
mtllib House.mtl
o House_Cube.001
v -0.100000 -0.000000 0.100000
v -0.100000 -0.000000 -0.100000
v 0.100000 -0.000000 0.100000
v -0.000156 0.200287 -0.120000
v 0.100000 -0.000000 -0.100000
v -0.020000 0.000000 0.110000
v -0.020000 0.100000 0.110000
v -0.020000 0.000000 0.100000
v -0.020000 0.100000 0.100000
v 0.020000 0.000000 0.110000
v 0.020000 0.100000 0.110000
v 0.020000 0.000000 0.100000
v 0.020000 0.100000 0.100000
v -0.016000 0.000000 0.110000
v -0.016000 0.095015 0.110000
v 0.016000 0.000000 0.110000
v 0.016000 0.095015 0.110000
v -0.016000 0.000000 0.104249
v -0.016000 0.095015 0.104249
v 0.016000 0.000000 0.104249
v 0.016000 0.095015 0.104249
v -0.155534 0.100100 -0.120000
v -0.000170 0.226045 0.120000
v -0.142940 0.084564 -0.120000
v -0.000170 0.226045 -0.120000
v 0.142599 0.084564 0.120000
v 0.155194 0.100100 0.120000
v 0.142599 0.084564 -0.120000
v 0.155194 0.100100 -0.120000
v -0.100000 0.120000 0.100000
v -0.100000 0.120000 -0.100000
v 0.100000 0.120000 -0.100000
v 0.100000 0.120000 0.100000
v -0.155534 0.100100 0.120000
v -0.142940 0.084564 0.120000
v -0.000217 0.200260 0.120000
v -0.000156 0.200287 -0.100000
v -0.000217 0.200260 0.100000
vn -0.6297 0.7768 0.0000
vn 0.0000 0.0000 -1.0000
vn 0.0000 -0.0000 1.0000
vn -1.0000 0.0000 0.0000
vn 0.0000 -1.0000 0.0000
vn 0.0000 1.0000 0.0000
vn 1.0000 0.0000 0.0000
vn 0.6296 -0.7769 0.0001
vn -0.7768 -0.6297 -0.0000
vn 0.7768 -0.6297 -0.0000
vn -0.6295 -0.7770 -0.0002
vn 0.6297 0.7768 0.0000
vn 1.0000 -0.0018 0.0003
vn -0.3913 0.9203 0.0000
vn 0.6297 -0.7768 0.0000
vn -0.6297 -0.7768 0.0000
vn 1.0000 0.0006 -0.0000
vn 0.3913 -0.9203 0.0000
usemtl Roof
s off
f 34//1 25//1 22//1
f 4//2 29//2 28//2
f 27//3 36//3 26//3
f 7//4 8//4 6//4
f 9//2 12//2 8//2
f 12//5 6//5 8//5
f 17//4 20//4 16//4
f 21//3 18//3 20//3
f 16//6 18//6 14//6
f 14//7 19//7 15//7
f 15//5 21//5 17//5
f 36//8 24//8 4//8
f 35//9 22//9 24//9
f 29//10 26//10 28//10
f 36//3 34//3 35//3
f 4//11 26//11 36//11
f 25//12 27//12 29//12
f 4//2 22//2 25//2
f 4//13 23//13 36//13
f 4//14 38//14 37//14
f 34//1 23//1 25//1
f 4//2 25//2 29//2
f 27//3 23//3 36//3
f 7//4 9//4 8//4
f 9//2 13//2 12//2
f 12//5 10//5 6//5
f 17//4 21//4 20//4
f 21//3 19//3 18//3
f 16//6 20//6 18//6
f 14//7 18//7 19//7
f 15//5 19//5 21//5
f 36//15 35//15 24//15
f 35//9 34//9 22//9
f 29//10 27//10 26//10
f 36//3 23//3 34//3
f 4//16 28//16 26//16
f 25//12 23//12 27//12
f 4//2 24//2 22//2
f 4//17 25//17 23//17
f 4//18 36//18 38//18
usemtl Brick
f 5//5 1//5 2//5
f 33//3 1//3 3//3
f 32//7 3//7 5//7
f 31//2 5//2 2//2
f 30//4 2//4 1//4
f 33//3 38//3 30//3
f 37//2 32//2 31//2
f 5//5 3//5 1//5
f 33//3 30//3 1//3
f 32//7 33//7 3//7
f 31//2 32//2 5//2
f 30//4 31//4 2//4
usemtl Wood
f 13//7 10//7 12//7
f 7//3 17//3 11//3
f 9//6 11//6 13//6
f 10//3 17//3 16//3
f 6//3 15//3 7//3
f 6//3 16//3 14//3
f 13//7 11//7 10//7
f 7//3 15//3 17//3
f 9//6 7//6 11//6
f 10//3 11//3 17//3
f 6//3 14//3 15//3
f 6//3 10//3 16//3
