# Blender v2.79 (sub 0) OBJ File: 'tree.blend'
# www.blender.org
mtllib Tree.mtl
o Tree_Cylinder
v 0.000000 0.000000 -0.040000
v 0.000000 0.160349 -0.040000
v 0.028284 0.000000 -0.028284
v 0.028284 0.160349 -0.028284
v 0.040000 0.000000 0.000000
v 0.040000 0.160349 0.000000
v 0.028284 0.000000 0.028284
v 0.028284 0.160349 0.028284
v -0.000000 0.000000 0.040000
v -0.000000 0.160349 0.040000
v -0.028284 0.000000 0.028284
v -0.028284 0.160349 0.028284
v -0.040000 0.000000 -0.000000
v -0.040000 0.160349 -0.000000
v -0.028284 0.000000 -0.028284
v -0.028284 0.160349 -0.028284
v 0.000000 0.121254 -0.126409
v 0.000000 0.254619 -0.080745
v 0.063204 0.121254 -0.109473
v 0.040372 0.254619 -0.069927
v 0.109473 0.121254 -0.063204
v 0.069927 0.254619 -0.040372
v 0.126409 0.121254 -0.000000
v 0.080745 0.254619 -0.000000
v 0.109473 0.121254 0.063204
v 0.069927 0.254619 0.040372
v 0.063204 0.121254 0.109473
v 0.040372 0.254619 0.069927
v 0.000000 0.121254 0.126409
v 0.000000 0.254619 0.080745
v -0.063204 0.121254 0.109473
v -0.040372 0.254619 0.069927
v -0.109473 0.121254 0.063204
v -0.069927 0.254619 0.040372
v -0.126409 0.121254 0.000000
v -0.080745 0.254619 0.000000
v -0.109473 0.121254 -0.063204
v -0.069927 0.254619 -0.040372
v -0.063204 0.121254 -0.109473
v -0.040372 0.254619 -0.069927
v 0.000000 0.135917 -0.093967
v 0.046984 0.135917 -0.081378
v 0.081378 0.135917 -0.046984
v 0.093967 0.135917 -0.000000
v 0.081378 0.135917 0.046984
v 0.046984 0.135917 0.081378
v 0.000000 0.135917 0.093967
v -0.046984 0.135917 0.081378
v -0.081378 0.135917 0.046984
v -0.093967 0.135917 0.000000
v -0.081378 0.135917 -0.046984
v -0.046984 0.135917 -0.081378
v -0.046984 0.121254 -0.081378
v -0.081378 0.121254 -0.046984
v -0.093967 0.121254 0.000000
v -0.081378 0.121254 0.046984
v -0.046984 0.121254 0.081378
v 0.000000 0.121254 0.093967
v 0.046984 0.121254 0.081378
v 0.081378 0.121254 0.046984
v 0.093967 0.121254 -0.000000
v 0.081378 0.121254 -0.046984
v 0.046984 0.121254 -0.081378
v 0.000000 0.121254 -0.093967
v 0.000000 0.228592 -0.104971
v 0.000000 0.359918 -0.067051
v 0.052486 0.228592 -0.090908
v 0.033526 0.359918 -0.058068
v 0.090908 0.228592 -0.052486
v 0.058068 0.359918 -0.033526
v 0.104971 0.228592 -0.000000
v 0.067051 0.359918 -0.000000
v 0.090908 0.228592 0.052486
v 0.058068 0.359918 0.033526
v 0.052486 0.228592 0.090908
v 0.033526 0.359918 0.058068
v 0.000000 0.228592 0.104971
v 0.000000 0.359918 0.067051
v -0.052486 0.228592 0.090908
v -0.033526 0.359918 0.058068
v -0.090908 0.228592 0.052486
v -0.058068 0.359918 0.033526
v -0.104971 0.228592 0.000000
v -0.067051 0.359918 0.000000
v -0.090908 0.228592 -0.052485
v -0.058068 0.359918 -0.033526
v -0.052486 0.228592 -0.090908
v -0.033526 0.359918 -0.058068
v 0.000000 0.352363 -0.089134
v 0.044567 0.352363 -0.077192
v 0.077193 0.352363 -0.044567
v 0.089134 0.352363 -0.000000
v 0.077193 0.352363 0.044567
v 0.044567 0.352363 0.077192
v 0.000000 0.352363 0.089134
v -0.044567 0.352363 0.077192
v -0.077192 0.352363 0.044567
v 0.000000 0.551020 0.000000
v -0.089134 0.352363 0.000000
v -0.077193 0.352363 -0.044567
v -0.044567 0.352363 -0.077192
vn 0.2457 0.3140 -0.9171
vn 0.6713 0.3140 -0.6713
vn 0.9171 0.3140 -0.2457
vn 0.9171 0.3140 0.2457
vn 0.6713 0.3140 0.6713
vn 0.2457 0.3140 0.9171
vn -0.2457 0.3140 0.9171
vn -0.6713 0.3140 0.6713
vn -0.9171 0.3140 0.2457
vn -0.9171 0.3140 -0.2457
vn 0.0000 1.0000 0.0000
vn -0.6713 0.3140 -0.6713
vn -0.2457 0.3140 -0.9171
vn 0.0000 -1.0000 -0.0000
vn 0.2588 0.0000 -0.9659
vn 0.7071 0.0000 0.7071
vn -0.7071 0.0000 -0.7071
vn -0.2588 0.0000 0.9659
vn -0.9659 0.0000 0.2588
vn -0.9659 0.0000 -0.2588
vn 0.9659 0.0000 -0.2588
vn 0.7071 0.0000 -0.7071
vn -0.7071 0.0000 0.7071
vn -0.2588 0.0000 -0.9659
vn 0.9659 0.0000 0.2588
vn 0.2588 0.0000 0.9659
vn 0.2493 0.2687 -0.9304
vn 0.6811 0.2687 -0.6811
vn 0.9304 0.2687 -0.2493
vn 0.9304 0.2687 0.2493
vn 0.6811 0.2687 0.6811
vn 0.2493 0.2687 0.9304
vn -0.2493 0.2687 0.9304
vn -0.6811 0.2687 0.6811
vn -0.9304 0.2687 0.2493
vn -0.9304 0.2687 -0.2493
vn -0.6811 0.2687 -0.6811
vn -0.2493 0.2687 -0.9304
vn 0.2375 0.3977 -0.8863
vn 0.6488 0.3977 -0.6488
vn 0.8863 0.3977 -0.2375
vn 0.8863 0.3977 0.2375
vn 0.6488 0.3977 0.6488
vn 0.2375 0.3977 0.8863
vn -0.2375 0.3977 0.8863
vn -0.6488 0.3977 0.6488
vn -0.8863 0.3977 0.2375
vn -0.8863 0.3977 -0.2375
vn -0.6488 0.3977 -0.6488
vn -0.2375 0.3977 -0.8863
vn 0.3827 0.0000 -0.9239
vn 0.9239 0.0000 -0.3827
vn 0.9239 0.0000 0.3827
vn 0.3827 0.0000 0.9239
vn -0.3827 0.0000 0.9239
vn -0.9239 0.0000 0.3827
vn -0.9239 0.0000 -0.3827
vn -0.3827 0.0000 -0.9239
usemtl Leaves
s off
f 18//1 19//1 17//1
f 20//2 21//2 19//2
f 22//3 23//3 21//3
f 24//4 25//4 23//4
f 26//5 27//5 25//5
f 28//6 29//6 27//6
f 30//7 31//7 29//7
f 32//8 33//8 31//8
f 33//9 36//9 35//9
f 36//10 37//10 35//10
f 18//11 38//11 30//11
f 38//12 39//12 37//12
f 40//13 17//13 39//13
f 33//14 57//14 31//14
f 57//15 47//15 58//15
f 46//14 48//14 52//14
f 53//16 51//16 54//16
f 59//17 45//17 60//17
f 63//18 41//18 64//18
f 61//19 43//19 62//19
f 60//20 44//20 61//20
f 55//21 49//21 56//21
f 25//14 61//14 23//14
f 19//14 64//14 17//14
f 39//14 54//14 37//14
f 35//14 54//14 55//14
f 29//14 59//14 27//14
f 56//22 48//22 57//22
f 62//23 42//23 63//23
f 23//14 62//14 21//14
f 31//14 58//14 29//14
f 58//24 46//24 59//24
f 39//14 64//14 53//14
f 33//14 55//14 56//14
f 54//25 50//25 55//25
f 27//14 60//14 25//14
f 64//26 52//26 53//26
f 21//14 63//14 19//14
f 66//27 67//27 65//27
f 67//28 70//28 69//28
f 70//29 71//29 69//29
f 72//30 73//30 71//30
f 74//31 75//31 73//31
f 75//32 78//32 77//32
f 78//33 79//33 77//33
f 80//34 81//34 79//34
f 82//35 83//35 81//35
f 84//36 85//36 83//36
f 86//11 78//11 70//11
f 86//37 87//37 85//37
f 87//38 66//38 65//38
f 71//14 79//14 87//14
f 89//39 98//39 90//39
f 90//40 98//40 91//40
f 91//41 98//41 92//41
f 92//42 98//42 93//42
f 93//43 98//43 94//43
f 94//44 98//44 95//44
f 95//45 98//45 96//45
f 96//46 98//46 97//46
f 97//47 98//47 99//47
f 99//48 98//48 100//48
f 100//49 98//49 101//49
f 101//50 98//50 89//50
f 96//14 99//14 101//14
f 18//1 20//1 19//1
f 20//2 22//2 21//2
f 22//3 24//3 23//3
f 24//4 26//4 25//4
f 26//5 28//5 27//5
f 28//6 30//6 29//6
f 30//7 32//7 31//7
f 32//8 34//8 33//8
f 33//9 34//9 36//9
f 36//10 38//10 37//10
f 22//11 20//11 18//11
f 18//11 40//11 38//11
f 38//11 36//11 30//11
f 36//11 34//11 30//11
f 34//11 32//11 30//11
f 30//11 28//11 22//11
f 28//11 26//11 22//11
f 26//11 24//11 22//11
f 22//11 18//11 30//11
f 38//12 40//12 39//12
f 40//13 18//13 17//13
f 33//14 56//14 57//14
f 57//15 48//15 47//15
f 52//14 41//14 42//14
f 42//14 43//14 44//14
f 44//14 45//14 46//14
f 46//14 47//14 48//14
f 48//14 49//14 52//14
f 49//14 50//14 52//14
f 50//14 51//14 52//14
f 52//14 42//14 44//14
f 44//14 46//14 52//14
f 53//16 52//16 51//16
f 59//17 46//17 45//17
f 63//18 42//18 41//18
f 61//19 44//19 43//19
f 60//20 45//20 44//20
f 55//21 50//21 49//21
f 25//14 60//14 61//14
f 19//14 63//14 64//14
f 39//14 53//14 54//14
f 35//14 37//14 54//14
f 29//14 58//14 59//14
f 56//22 49//22 48//22
f 62//23 43//23 42//23
f 23//14 61//14 62//14
f 31//14 57//14 58//14
f 58//24 47//24 46//24
f 39//14 17//14 64//14
f 33//14 35//14 55//14
f 54//25 51//25 50//25
f 27//14 59//14 60//14
f 64//26 41//26 52//26
f 21//14 62//14 63//14
f 66//27 68//27 67//27
f 67//28 68//28 70//28
f 70//29 72//29 71//29
f 72//30 74//30 73//30
f 74//31 76//31 75//31
f 75//32 76//32 78//32
f 78//33 80//33 79//33
f 80//34 82//34 81//34
f 82//35 84//35 83//35
f 84//36 86//36 85//36
f 70//11 68//11 66//11
f 66//11 88//11 86//11
f 86//11 84//11 78//11
f 84//11 82//11 78//11
f 82//11 80//11 78//11
f 78//11 76//11 70//11
f 76//11 74//11 70//11
f 74//11 72//11 70//11
f 70//11 66//11 86//11
f 86//37 88//37 87//37
f 87//38 88//38 66//38
f 87//14 65//14 67//14
f 67//14 69//14 71//14
f 71//14 73//14 75//14
f 75//14 77//14 79//14
f 79//14 81//14 87//14
f 81//14 83//14 87//14
f 83//14 85//14 87//14
f 87//14 67//14 71//14
f 71//14 75//14 79//14
f 101//14 89//14 92//14
f 89//14 90//14 92//14
f 90//14 91//14 92//14
f 92//14 93//14 94//14
f 94//14 95//14 96//14
f 96//14 97//14 99//14
f 99//14 100//14 101//14
f 92//14 94//14 101//14
f 94//14 96//14 101//14
usemtl Bark
f 2//51 3//51 1//51
f 4//52 5//52 3//52
f 6//53 7//53 5//53
f 8//54 9//54 7//54
f 10//55 11//55 9//55
f 12//56 13//56 11//56
f 6//11 2//11 14//11
f 14//57 15//57 13//57
f 16//58 1//58 15//58
f 15//14 3//14 7//14
f 2//51 4//51 3//51
f 4//52 6//52 5//52
f 6//53 8//53 7//53
f 8//54 10//54 9//54
f 10//55 12//55 11//55
f 12//56 14//56 13//56
f 6//11 4//11 2//11
f 2//11 16//11 14//11
f 14//11 12//11 10//11
f 10//11 8//11 14//11
f 8//11 6//11 14//11
f 14//57 16//57 15//57
f 16//58 2//58 1//58
f 15//14 1//14 3//14
f 3//14 5//14 7//14
f 7//14 9//14 11//14
f 11//14 13//14 7//14
f 13//14 15//14 7//14
